<svg width="42" height="30" viewBox="0 0 42 30" xmlns="http://www.w3.org/2000/svg">
<path d="M24.1295 4.82208C27.2702 1.64448 31.0795 0.0809046 35.4971 0.00219992C37.3682 -0.0311383 39.2028 0.315807 40.9742 0.949616C41.3685 1.09069 41.5643 1.30714 41.658 1.73069C43.2088 8.73715 39.361 16.1723 32.6348 19.138C32.4422 19.2229 32.2111 19.2505 32.0284 19.5123C32.7622 20.0998 33.4199 20.7715 33.9512 21.5506C35.1868 23.3621 35.7728 25.3581 35.7131 27.5495C35.6999 28.0352 35.4662 28.2872 35.0885 28.5217C30.3603 31.4571 24.1797 29.8843 21.3384 25.0147C21.2405 24.8469 21.1461 24.6771 21.0151 24.4468C20.6917 24.9471 20.4173 25.4139 20.1024 25.8521C17.0131 30.1514 11.2612 31.2545 6.74981 28.4368C6.34605 28.1846 6.25849 27.852 6.25881 27.446C6.26111 24.5363 7.26023 22.0373 9.38841 20.0031C9.55559 19.8433 9.778 19.7246 9.8405 19.4682C9.70526 19.2474 9.45668 19.2003 9.24957 19.0996C3.923 16.5106 0.87112 12.2919 0.104936 6.47772C-0.103321 4.89736 0.0119901 3.304 0.330887 1.73181C0.414038 1.32187 0.617904 1.09328 1.02052 0.947444C8.54269 -1.77726 17.0529 1.57751 20.6134 8.67887C20.7064 8.86421 20.7499 9.09498 21.0609 9.21395C21.9061 7.65347 22.8174 6.1216 24.1295 4.82208Z"/>
</svg>
