<svg width="45" height="46" viewBox="0 0 45 46"  xmlns="http://www.w3.org/2000/svg">
<path d="M32.0575 2.49115C39.6239 6.07522 45 13.8407 45 23C45 35.3451 34.8451 45.5 22.5 45.5C18.7168 45.5 15.1328 44.5044 12.146 42.9115C13.3407 43.1106 14.7345 43.3097 15.9292 43.3097C22.5 43.3097 28.2743 40.7212 32.6549 36.3407C36.8363 32.1593 39.4248 26.1858 39.4248 19.8142C39.4248 13.2434 36.8363 7.46903 32.6549 3.0885C32.4558 2.88938 32.2566 2.69026 32.0575 2.49115Z"/>
<path d="M36.2389 26.7832C35.0442 29.969 33.4513 32.7566 31.0619 34.9469C27.2788 38.7301 21.9027 41.1195 15.9292 41.1195C12.7434 41.1195 9.55752 40.5221 6.76991 39.1283C2.78761 35.3451 0.199115 29.969 0 23.9956C0.79646 25.1903 1.59292 26.1858 2.5885 27.1814C6.76991 31.5619 12.7434 34.1504 19.3142 34.1504C25.6858 34.1504 31.6593 31.5619 35.8407 27.1814C36.0398 27.1814 36.0398 26.9823 36.2389 26.7832Z"/>
<path d="M22.5 0.5C23.2965 0.5 24.0929 0.5 24.8894 0.5C20.1106 1.49558 15.9292 3.68584 12.5442 7.0708C8.36283 11.2522 5.77434 17.2257 5.77434 23.5973C5.77434 24.9912 5.77434 26.1858 6.17257 27.5796C5.37611 26.9823 4.77876 26.385 3.9823 25.7876C2.38938 24.1947 1.19469 22.2035 0 20.2124C1.39381 9.06195 10.9513 0.5 22.5 0.5Z"/>
</svg>
